<?xml version="1.0" encoding="UTF-8"?>
<svg xmlns="http://www.w3.org/2000/svg" xmlns:xlink="http://www.w3.org/1999/xlink" width="70px" height="97px" viewBox="0 0 70 97" version="1.1">
<defs>
<clipPath id="clip1">
  <path d="M 0.6875 49 L 34 49 L 34 89 L 0.6875 89 Z M 0.6875 49 "/>
</clipPath>
<clipPath id="clip2">
  <path d="M 2 0.683594 L 69.316406 0.683594 L 69.316406 96.316406 L 2 96.316406 Z M 2 0.683594 "/>
</clipPath>
<clipPath id="clip3">
  <path d="M 0.6875 40 L 37 40 L 37 80 L 0.6875 80 Z M 0.6875 40 "/>
</clipPath>
</defs>
<g id="surface1">
<g clip-path="url(#clip1)" clip-rule="nonzero">
<path style=" stroke:none;fill-rule:nonzero;fill:rgb(94.509804%,35.294118%,14.117647%);fill-opacity:1;" d="M 0.734375 79.066406 C 0.53125 81.734375 0.96875 84.410156 2.007812 86.878906 C 2.246094 87.429688 2.527344 87.960938 2.847656 88.464844 C 12.730469 78.921875 21.972656 68.738281 30.511719 57.976562 L 32.957031 50.226562 L 33.070312 50.226562 L 33.375 49.289062 C 22.078125 59.121094 11.738281 69.550781 0.734375 79.066406 Z M 0.734375 79.066406 "/>
</g>
<path style=" stroke:none;fill-rule:nonzero;fill:rgb(92.941176%,10.980392%,14.117647%);fill-opacity:1;" d="M 30.5625 58.015625 C 22.023438 68.773438 12.78125 78.960938 2.898438 88.503906 C 4.121094 90.394531 5.769531 91.976562 7.714844 93.117188 C 8.324219 93.484375 8.960938 93.804688 9.625 94.070312 C 15.46875 86.445312 20.613281 77.933594 26.5 71.203125 Z M 30.5625 58.015625 "/>
<g clip-path="url(#clip2)" clip-rule="nonzero">
<path style=" stroke:none;fill-rule:nonzero;fill:rgb(10.196078%,10.196078%,10.196078%);fill-opacity:1;" d="M 68.054688 38.796875 C 67.234375 35.710938 65.613281 32.898438 63.355469 30.640625 C 60.878906 28.359375 57.585938 27.179688 54.222656 27.363281 C 50.695312 27.285156 47.21875 28.214844 44.199219 30.042969 C 41.355469 31.800781 38.898438 34.117188 36.980469 36.851562 L 40.800781 24.679688 C 41.503906 22.242188 41.929688 19.734375 42.074219 17.199219 C 42.277344 14.53125 41.839844 11.851562 40.800781 9.386719 C 39.605469 6.789062 37.617188 4.632812 35.121094 3.226562 C 32.394531 1.53125 28.460938 0.683594 23.316406 0.683594 L 17.738281 0.683594 C 18.972656 1.316406 19.871094 2.460938 20.195312 3.808594 C 20.578125 5.277344 20.734375 6.792969 20.652344 8.308594 C 20.59375 9.777344 20.386719 11.234375 20.042969 12.664062 C 19.703125 14.003906 19.460938 14.894531 19.316406 15.34375 L 2.988281 68.699219 C 15.152344 60.390625 26.480469 50.933594 36.828125 40.460938 C 37.570312 39.082031 38.621094 37.890625 39.894531 36.980469 C 40.742188 36.292969 41.878906 36.082031 42.914062 36.417969 C 43.882812 37.027344 44.488281 38.074219 44.53125 39.214844 C 44.746094 41.21875 44.5 43.25 43.816406 45.148438 L 33.070312 78.734375 C 32.539062 80.753906 31.519531 82.613281 30.101562 84.148438 C 29.285156 85.082031 28.097656 85.613281 26.855469 85.59375 C 25.742188 85.402344 24.832031 84.601562 24.5 83.523438 C 23.929688 81.886719 23.875 80.113281 24.332031 78.441406 L 25.453125 74.53125 L 25.785156 73.855469 L 25.671875 73.855469 L 26.5 71.175781 C 20.601562 77.933594 15.457031 86.421875 9.625 94.042969 C 12.792969 95.1875 16.152344 95.71875 19.519531 95.605469 L 25.109375 95.605469 C 24.257812 95.199219 23.554688 94.539062 23.097656 93.710938 C 22.640625 92.863281 22.339844 91.9375 22.207031 90.980469 C 22.074219 89.945312 22.074219 88.894531 22.207031 87.855469 C 22.316406 86.78125 22.449219 85.757812 22.601562 84.78125 C 22.835938 86.261719 23.265625 87.707031 23.875 89.074219 C 24.429688 90.414062 25.21875 91.640625 26.207031 92.695312 C 27.289062 93.800781 28.589844 94.664062 30.027344 95.238281 C 31.722656 95.902344 33.527344 96.257812 35.347656 96.292969 C 39.839844 96.503906 44.285156 95.332031 48.085938 92.9375 C 51.863281 90.546875 55.164062 87.480469 57.828125 83.894531 C 60.515625 80.214844 62.726562 76.210938 64.410156 71.976562 C 66.050781 68.140625 67.328125 64.160156 68.230469 60.085938 C 68.851562 56.566406 69.203125 53.003906 69.289062 49.429688 C 69.421875 45.839844 69.007812 42.253906 68.054688 38.796875 Z M 68.054688 38.796875 "/>
</g>
<g clip-path="url(#clip3)" clip-rule="nonzero">
<path style=" stroke:none;fill-rule:nonzero;fill:rgb(96.862745%,57.647059%,11.764706%);fill-opacity:1;" d="M 2.976562 68.625 L 2.007812 71.582031 C 1.308594 74.023438 0.878906 76.53125 0.734375 79.066406 C 11.738281 69.550781 22.078125 59.121094 33.375 49.328125 L 33.515625 48.871094 L 34.304688 46.417969 C 34.601562 45.484375 34.9375 44.539062 35.3125 43.570312 C 35.613281 42.726562 35.976562 41.902344 36.394531 41.105469 C 36.519531 40.867188 36.660156 40.675781 36.789062 40.460938 C 26.449219 50.90625 15.125 60.335938 2.976562 68.625 Z M 2.976562 68.625 "/>
</g>
</g>
</svg>
