<svg xmlns="http://www.w3.org/2000/svg" xmlns:xlink="http://www.w3.org/1999/xlink" version="1.0" x="0" y="0" width="2400" height="1118.5097593181072" viewBox="77.59228164672851 81.93377334594726 184.81543670654298 86.13244567871094" preserveAspectRatio="xMidYMid meet" color-interpolation-filters="sRGB"><g><defs><linearGradient id="92" x1="0%" y1="0%" x2="100%" y2="0%"><stop offset="0%" stop-color="#fa71cd"></stop> <stop offset="100%" stop-color="#9b59b6"></stop></linearGradient><linearGradient id="93" x1="0%" y1="0%" x2="100%" y2="0%"><stop offset="0%" stop-color="#f9d423"></stop> <stop offset="100%" stop-color="#f83600"></stop></linearGradient><linearGradient id="94" x1="0%" y1="0%" x2="100%" y2="0%"><stop offset="0%" stop-color="#0064d2"></stop> <stop offset="100%" stop-color="#1cb0f6"></stop></linearGradient><linearGradient id="95" x1="0%" y1="0%" x2="100%" y2="0%"><stop offset="0%" stop-color="#f00978"></stop> <stop offset="100%" stop-color="#3f51b1"></stop></linearGradient><linearGradient id="96" x1="0%" y1="0%" x2="100%" y2="0%"><stop offset="0%" stop-color="#7873f5"></stop> <stop offset="100%" stop-color="#ec77ab"></stop></linearGradient><linearGradient id="97" x1="0%" y1="0%" x2="100%" y2="0%"><stop offset="0%" stop-color="#f9d423"></stop> <stop offset="100%" stop-color="#e14fad"></stop></linearGradient><linearGradient id="98" x1="0%" y1="0%" x2="100%" y2="0%"><stop offset="0%" stop-color="#009efd"></stop> <stop offset="100%" stop-color="#2af598"></stop></linearGradient><linearGradient id="99" x1="0%" y1="0%" x2="100%" y2="0%"><stop offset="0%" stop-color="#ffcc00"></stop> <stop offset="100%" stop-color="#00b140"></stop></linearGradient><linearGradient id="100" x1="0%" y1="0%" x2="100%" y2="0%"><stop offset="0%" stop-color="#d51007"></stop> <stop offset="100%" stop-color="#ff8177"></stop></linearGradient><linearGradient id="102" x1="0%" y1="0%" x2="100%" y2="0%"><stop offset="0%" stop-color="#a2b6df"></stop> <stop offset="100%" stop-color="#0c3483"></stop></linearGradient><linearGradient id="103" x1="0%" y1="0%" x2="100%" y2="0%"><stop offset="0%" stop-color="#7ac5d8"></stop> <stop offset="100%" stop-color="#eea2a2"></stop></linearGradient><linearGradient id="104" x1="0%" y1="0%" x2="100%" y2="0%"><stop offset="0%" stop-color="#00ecbc"></stop> <stop offset="100%" stop-color="#007adf"></stop></linearGradient><linearGradient id="105" x1="0%" y1="0%" x2="100%" y2="0%"><stop offset="0%" stop-color="#b88746"></stop> <stop offset="100%" stop-color="#fdf5a6"></stop></linearGradient></defs><g fill="#1A1A1A" class="iconlinesvg-g iconlinesvg" transform="translate(79.4041976928711,83.74569320678711)"><g class="tp-name" transform="translate(0,0)"><g transform="translate(0, 0)"><g><g fill="#1A1A1A" class="imagesvg"><rect fill="#1A1A1A" fill-opacity="0" stroke-width="2" x="0" y="0" width="75.35973681841187" height="75.35973681841187" class="image-rect"></rect> <svg viewBox="0 0 60 61.76715840187772" x="0" y="0" width="75.35973681841187" height="75.35973681841187" class="image-svg-svg bn" style="overflow: visible;"><g hollow-target="iconBnOutline"><g mask="url(#dec5fbb2-252e-4d33-afc3-e902883b4d1d)"><svg xmlns="http://www.w3.org/2000/svg" viewBox="0.00023 0.00334 475.28979 489.28769" style="overflow: visible;" width="60" height="61.76715840187772" x="0" y="0" filtersec="colorsb8186175225" filter="url(#RJ6q5ZiF0Y-w84OXKJg_N)"><g transform="scale(1, 1) skewX(0)"><path d="M348.28 47.86c-6.89-3.19-13.55-6.92-20.81-9.23 3.72 1.61 7.48 3.13 9.24 5.21.26.27 2 1 3 1.52l2.7 1.45c9.94 4.1 18.07 10.92 27.25 16.24-7.43-3.36-13.36-8.49-20.21-12.29a26.45 26.45 0 0 1 5.29 3.56 13.73 13.73 0 0 0 3.56 2.39c4.14 1.77 7.24 4.61 12.68 8C362 61.15 355.5 54.58 348.05 52c-2.14-.8-4.24-1.89-6.35-2.87 9.55 4.13 18.32 9.72 27.19 15.14 37.11 24.73 67.05 60.5 83.28 102.2 1 2.92 2.48 6.34 1.9 8a203 203 0 0 0-19.43-38.16c-3.33-5.32-6.17-11.08-10.53-16-23.45-29.73-53.95-55.26-89.17-69.94-9.75-3.8-19.81-8.42-30.05-10.6-12.7-3.3-25.68-6.38-38.7-6.79-19.66 0-40.35.27-59.59 3.39a208 208 0 0 0-72.79 26.84c-5.89 3.4-10.52 6.6-13 10.16 2.65-.37 9.1-5.37 12.19-5.62-12.37 8.32-24.35 17.94-33.43 28.6 15.43-13.86 33.3-24.79 51.63-33.58A223.51 223.51 0 0 1 211 43.42c20.09-3.73 40.85-3.5 61.15-1.49a229.19 229.19 0 0 0-40.24-.5l3.4-.19c21.89-2.39 44.07 1 65 7.13 2.6.71 4.74 1.35 6.59 2.06 10.29 3.77 20.75 6.72 30.44 11.33a94.88 94.88 0 0 1 17.28 9 157.39 157.39 0 0 1 16.29 10.61c-3.82-1.78-7.35-4.65-11.5-6.8C344 65 327.3 57.91 310 52.41a12.47 12.47 0 0 1 1.68 1.26c1 1.22 4.4 2.91 7.92 4.39 7.69 2.8 13.9 7.94 22 10.7 11.24 7.54 23.94 14.09 33.69 23.61 11.71 9.26 22.22 20.63 31.61 32.52 4 5.15 9.25 11.24 11.17 18-2.89-1.76-5.67-6.69-8.72-10.39-3.39-4.32-6.37-8.91-10.12-12.9a196.22 196.22 0 0 0-53.5-43.82c-6.72-4.22-14-7.44-21.17-10.9-6.47-2.07-12.48-3.34-19.5-6.31-2.77-.92-6.13-1.17-9.44-2.89-2-1-1.89.81-5.62-.32-5.39-1.76-11.18-1.73-16.7-2.68-13.38-1.68-27.3-2.53-40.47-.83-9.63.75-19.16 3-28.69 4.82l-14.57 4-13.82 5.23.43.3c-5.33 1.8-10.18 4.64-15.25 7.13-8.58 3.73-16.5 9.06-24.31 14-19.38 13.86-37.35 30.79-50.16 50.93-6.8 10.73-13.59 22.14-18.81 34-6.84 17.43-12.81 35.39-14.9 54.18a209.6 209.6 0 0 0 0 48.09 196.32 196.32 0 0 0 25.3 75.8c8.07 14.78 18.68 28 30.28 40.31a229.1 229.1 0 0 0 26.93 23.13c14.26 9.09 28.89 18.23 45.18 23.33 5.7 2.31 9.53 4.64 14.61 5.91 9.9 3.12 20.08 4.61 30.25 6.49 8.87.54 17.78 2 26.72 1.65.87 0 .57.26 1.11.33 10.83.16 21.45-.89 32-1.46a18.54 18.54 0 0 0 3.05-.54c9.66-2.83 19.61-3.91 29-7.5l14.92-5.3c.56 1.9-5.76 5.4-8.91 8.33 4.71-2.39 6.89-4 11-5.15 4.48-1.31 13.47-5.95 14-8 .5-1.28.82-1.73 3.5-3.14 2.1-1.11 4.73-2.84 4.44-1.44-.24 1.21 1.42-.1 2.72-1a10.52 10.52 0 0 1 3.45-1.85c3.21-.26 7.41-3.69 11.52-6.2A209.49 209.49 0 0 0 427.36 359c18.19-29.53 29.29-63.79 29.91-98.5.09-3.61.12-7.77 1-11.27a21.7 21.7 0 0 1 .23 6.25c-.89 36.37-10.8 72.72-30 103.91-7.49 13.15-17.1 25-27.34 36.12-3.81 4.63-8.44 8.42-12.78 12.53 6.66-5.4 13.26-10.8 18.77-17.5A71.62 71.62 0 0 1 391 406.39a54.18 54.18 0 0 1 5-3.58 9.34 9.34 0 0 0 3.11-2.71c2.44-3.61 5.68-6 9.94-10.52-5.11 7.81-12.07 13.18-17.37 18.51-5.28 6.24-12.6 10.92-19.25 15.93-6.31 5.44-14.36 8.64-21.35 13.51 2.89.27 3.41.28.55 2.11l14.88-9.06a222.48 222.48 0 0 0 81.89-100.14c1.07-2.85 2.14-6.31 3.65-7.19a183.6 183.6 0 0 1-17.25 39 172.22 172.22 0 0 1-10.6 15.95c-20.76 32.13-52.9 56.9-87.67 73.42a219.4 219.4 0 0 1-30.53 11c-12.82 4.16-26.33 5.16-39.36 7.62-19.89 3.13-41.6 1.82-61.09-2.41a233.55 233.55 0 0 1-73.64-29.43c-3.52-2.2-6.66-3.87-9.56-5.32l2.17 1.42a33.72 33.72 0 0 1-6.6-3.75l-.8-.43c.92 2.86 8.41 7 10.25 9.34-13.78-7.62-26.15-17.92-37.95-27 12.38 12.89 26.16 24.71 41.53 34.12a74.76 74.76 0 0 0 12.52 6.57c3.44 1.46 7.24 3.23 10.53 5 7.84 4.18 16.58 6.47 24.79 10.12 3.43 1.12 7.59 3 10.84 3.29 5.95.65 12.31 2.6 18.49 3.21 15.78 2.49 31.58 2.4 47.84 3a48.72 48.72 0 0 0 5.73-.41 125.19 125.19 0 0 0 13.45-1.56c6.45-1.13 13.2-1.58 19.25-3.11 23.28-5.95 46.08-13.85 67.17-25.55 2.56-1.5 4.72-2.7 6.7-3.64 10.49-6.08 19.78-13.84 28.35-21.84 10.39-9.73 20.53-19.85 29-31.2-1.95 4.22-5.35 7.92-8.69 11.8-12.7 15.31-28.14 28.3-44.72 40a15 15 0 0 1 2.23-.65c1.78 0 5.36-2.35 9-4.75 7.79-5 15.55-9.73 22-17.11 12.5-9.41 21.88-23 32-34.73 9.59-14.38 18.72-29.62 25.44-45.82a163.12 163.12 0 0 1 9.21-22.76c.79 3.92-1.92 10.12-3.77 15.44a129.6 129.6 0 0 1-7.42 17.89 237.34 237.34 0 0 1-46.62 67.36c-7.09 6.19-13.84 12.71-21.38 18.46-6.37 4.81-11.27 10.55-19.52 14.57-3.07 1.63-6.17 4.19-10.29 5.7-2.55.83-.95 2.29-5.27 4.17l-18.24 9c-15.06 6.27-31 10.79-46.53 14.67-11.43 2.29-23.06 4.56-34.92 4.85a157.09 157.09 0 0 1-18.37.45l-18-.63.32.47-20.57-2.7a269.25 269.25 0 0 1-33.5-8.93c-28.19-8.94-54.24-24.62-77.36-42.88-12.32-9.94-23.64-22.08-33.76-34.63-15-18-25.67-39.14-34.69-60.58C15 320.83 9.6 301.47 7.46 281.72a241.54 241.54 0 0 1 7.89-97.89 228.07 228.07 0 0 1 25.14-55.9c7.25-12.3 16.21-23.61 25.51-34.29 13.38-15.43 29.21-28.43 45.7-40.21 6-4.21 11.3-5.52 16.53-8.75a200.37 200.37 0 0 1 33-15.11 191.75 191.75 0 0 1 30-8.57c1-.23.71.12 1.33.06a150.22 150.22 0 0 1 36.52-3.69 35.13 35.13 0 0 0 3.52-.22c11.46-1.2 22.67.26 33.88 1.26a90.16 90.16 0 0 1 17.56 3c-.51 1.47-5.6 1.27-9.92 1.76 8.51 1.49 17.19 2.22 25.5 4.72a7.71 7.71 0 0 0 1.74 0c1.32-.51 1.92-.58 5.1.43 2.49.79 5.87 1.54 4.53 2.28-.2.12.12.27.12.27 6.15 1.54 12 4.07 18 6.19 46 18.39 86.21 51.61 111.86 94.17C460.74 163 471.44 199.89 474 237.07c.3 3.87.7 8.38.23 12.15a24.91 24.91 0 0 1-.88-6.68C472 203.64 460.81 165 440.07 132a212.79 212.79 0 0 0-29.28-38.23 230 230 0 0 0-62.51-45.91zM238.07 19.1c-.83.82 1.21 1.18 3.76 1.37 1.73.17 3.69 0 5.93.3h6.36c1.38 0 4.57.28 3.49-.53-.92-.68-2.67-.64-4.49-.38-3.43.53-6.14.3-7.5-.85-.53-.47-1-1.14-4.38-.82a6.27 6.27 0 0 0-3.17.91zm-139.61 84l-13.1 14.63.22.05zM346 442.52a137.52 137.52 0 0 1-29.65 11.13c-7.12 2.5-15 4.11-18.89 6.66l-1.36.58a213.91 213.91 0 0 0 49.9-18.37zm39.38-31.71l-.69.63.31-.25zm-92.07 39.66c-.58.95 1.29.95 3.61.67l5.36-.88 5.56-1.69c1.19-.38 3.94-1.35 2.76-1.68-1-.31-2.41.41-3.92 1.08-2.81 1.39-5.22 2.06-6.73 1.12-.58-.36-1.16-.93-4 0a5.23 5.23 0 0 0-2.66 1.38zM194.65 47.6l5.72-1.15c1.52-.21 3.36-1 5-1.35l8-1.45a119.44 119.44 0 0 0-18.72 3.95zm-72.78 35.17c4.39-3.16 8.62-6.59 13.58-8.9 2.92-1.52 6.76-3 9-4.9 4-3.82 9.86-5.68 14.78-8.35a91.6 91.6 0 0 1 10.57-5c-17.01 7.02-33.43 15.76-47.93 27.15zM324.5 41.82h-.07c-8-3-16.13-6.18-24.79-7.84l.21.26a158.57 158.57 0 0 1 24.65 7.58z" fill="#000000"></path><path d="M143.37 26.86l1.5-.37c1.29-.14 5.39-2.21 7.81-3.23l21.71-8.94c7.65-2.72 16.93-5.72 25.9-7.13 12.41-1.84 24.88-4 37.69-3.53-17.75-.3-36.21.69-54.21 6.48-4.25 1.38-9.07 2.07-13.44 3.65a76 76 0 0 0-9.4 3.49c-9.33 4.27-18.61 8.53-27.83 11.72-4.17 1.38-5.57 3.41-8.08 4.53-9.32 3.84-19.36 11.77-27.78 16.15C91 54.43 84.84 59.32 79 64.66a121.81 121.81 0 0 0-16.79 16.55C55.05 88.91 49 97.5 42.11 105.6c-5.07 5.69-8.39 12.83-12.54 19.26a249.39 249.39 0 0 0-28.3 73.45c1.3-1.24 2.08-3.58 2.83-6.46 4.66-20.67 13.49-39.88 23.12-58.4 4.7-8.4 10.56-16.71 14.93-25.06a17.13 17.13 0 0 1 3-3.76c7.29-7 14.23-16.77 21.48-24.35a97.42 97.42 0 0 1 16.08-15c3.34-2.39 6.24-5.37 9.73-7.68 6.94-4.74 13.49-10 20.75-14.27 5-3 10.54-6.08 14.91-9.13 5.14-3.31 9.72-5.88 14.87-7.18-21.59 9.72-41.22 23.34-59 38.69a253.52 253.52 0 0 0-35 37.53c-23.07 28.88-38.44 64.74-45 101.6C-.75 228-.65 251.73 1.13 275.18l.74-.05a279.7 279.7 0 0 1 4.61-75.69 263.41 263.41 0 0 1 27.1-70.77c25.15-43.89 63.55-80.5 109.79-101.81zM475.29 163.78l-.82-3A239.14 239.14 0 0 0 425.37 83c20.94 23.8 39.03 50.69 49.92 80.78zM429.05 317.38a22.19 22.19 0 0 0-1.11 2.24 200.53 200.53 0 0 1-38.78 62.17c18.07-18.04 30.77-40.79 39.89-64.41zM81.46 338.85c8.07 13.61 15.83 27.68 27 39.19a83.55 83.55 0 0 0 16.15 15.26 16.44 16.44 0 0 1 2.67 2.49c5 5.9 12.58 11.47 19.73 15.16l14.61 8.66c2.7 1.69 5.55 3.17 8.41 4.69 5.84 2.9 12.06 5 18.12 7.5a91.47 91.47 0 0 0 13.18 3.45c5.28 1.09 9.73 1.08 14 3.42a26.17 26.17 0 0 0 6.51 1.32 96.7 96.7 0 0 0 18.39.42c6.35-.11 13.78-1.16 20.83-1.18 9.71-.38 19.35-2.3 29.1-3.88-13.72 2.36-27.63 2.51-42.05 3.65-3.43.3-7.13-.33-10.69-.53a45.89 45.89 0 0 0-7.69-.31c-7.9.43-15.79-1.41-22.8-3.77-3.08-1.33-4.95-.7-6.89-1.61-7.06-2.9-16.67-4.78-22.62-9.11-11.15-3.94-21.32-10.3-31.42-16.37-7-3.71-13.09-8.94-19-14.13-3.83-4.25-8.33-7.9-12.57-11.77a210.88 210.88 0 0 1-34.13-47.76c-.41 1.42.2 3.19 1.16 5.21z" fill="#000000"></path><path d="M80.9 155.55c-2.31 3.24-3.65 6.89-5 10.39-1.93 5.35-5.47 9.9-7.15 15.58-1.27 3.84-2.86 7.66-4 11.79 3.42-4.78 4.88-12.73 14.08-31.52a181.51 181.51 0 0 1 19.08-29.64l-.93.26a181.69 181.69 0 0 0-16.08 23.14zM97.32 375.32A169.45 169.45 0 0 0 149 419.88c-19.55-11.98-36.65-27.37-51.68-44.56zM296.63 431.13c7.56-1.09 14.17-4.94 21.37-6.9a225 225 0 0 1-56.61 11.29c6.68.73 12.91 0 20.38-1.17 4.85-.79 9.89-2.35 14.86-3.22z" fill="#000000"></path><path d="M69.55 329.83a163.66 163.66 0 0 0 22.08 38.4l.42-.48a175.52 175.52 0 0 1-20.87-35.92c21.13 45.68 61.3 82.31 108.66 99.11A187.31 187.31 0 0 1 118.31 394c-10-9-19.56-18.67-26.92-30.18-16.17-23.94-29.17-51-33.85-80-3.49-18.05-3.44-36.64-2.17-54.95l-.73-.1c-3.75 34.06.9 69.54 15.51 100.81zM71.15 422.67c-3.42-3.82-6.75-7.5-10.31-10.84-5.63-4.9-8.92-11.63-13.61-17.61A129.61 129.61 0 0 1 38 381c2.83 6.77 8.08 16.18 26.66 36.25A236.15 236.15 0 0 0 99 447.93l-.45-1.07c-9.99-7.1-18.62-15.8-27.4-24.19zM76.67 79c-20.21 19.35-37.52 42.2-48.95 68.11A273.23 273.23 0 0 1 76.67 79zM247.41.82c9.89 1 19.79.36 29.45 2.18a229.18 229.18 0 0 0-76.48.44l27-2c6.46-.52 13.44-.73 20.03-.62zM7.48 210.08c3.25-18 8.87-35.67 15.68-52.7l-.62-.1c-6.9 16.92-12.72 34.45-15.67 52.58z" fill="#000000"></path></g><defs><filter id="RJ6q5ZiF0Y-w84OXKJg_N"><feColorMatrix type="matrix" values="0 0 0 0 0.1015625  0 0 0 0 0.1015625  0 0 0 0 0.1015625  0 0 0 1 0"></feColorMatrix></filter></defs></svg></g> <g><svg xmlns="http://www.w3.org/2000/svg" viewBox="-0.038247983902692795 0 53.88772964477539 75.27935028076172" width="40" height="41.17811" x="10" y="10.294524200938863" class="image-svg-icon"><g><g><path d="M0 61.7a13.26 13.26 0 0 0 1 6.15 9.16 9.16 0 0 0 .66 1.25 245.38 245.38 0 0 0 21.72-24L25.3 39h.09l.24-.74C16.76 46 8.64 54.21 0 61.7z" fill="#f15a24"></path><path d="M23.42 45.13a245.38 245.38 0 0 1-21.72 24 11.31 11.31 0 0 0 3.78 3.63 10.24 10.24 0 0 0 1.5.75c4.59-6 8.63-12.7 13.25-18z" fill="#ed1c24"></path><path d="M52.86 30a14.28 14.28 0 0 0-3.69-6.42A9.78 9.78 0 0 0 42 21a14.57 14.57 0 0 0-7.87 2.11 19.41 19.41 0 0 0-5.67 5.36l3-9.58a26.88 26.88 0 0 0 1-5.89 13.26 13.26 0 0 0-1-6.15A10.69 10.69 0 0 0 27 2q-3.21-2-9.27-2h-4.38a3.74 3.74 0 0 1 1.93 2.46A11.58 11.58 0 0 1 15.64 6a17.67 17.67 0 0 1-.48 3.43q-.4 1.58-.57 2.11l-12.82 42a180.42 180.42 0 0 0 26.57-22.23 8.12 8.12 0 0 1 2.41-2.74 2.51 2.51 0 0 1 2.37-.44 2.72 2.72 0 0 1 1.27 2.2 10.54 10.54 0 0 1-.56 4.67l-8.44 26.44a10.07 10.07 0 0 1-2.33 4.26 3.32 3.32 0 0 1-2.55 1.14 2.36 2.36 0 0 1-1.85-1.63 6.76 6.76 0 0 1-.13-4l.88-3.08.26-.53h-.09l.65-2.11c-4.63 5.32-8.67 12-13.25 18a20.78 20.78 0 0 0 7.77 1.23h4.39a3.56 3.56 0 0 1-1.58-1.49 6.42 6.42 0 0 1-.7-2.15 9.78 9.78 0 0 1 0-2.46q.13-1.27.31-2.42a13.53 13.53 0 0 0 1 3.38A9.49 9.49 0 0 0 20 72.43a8.71 8.71 0 0 0 3 2 12 12 0 0 0 4.18.83 17.19 17.19 0 0 0 10-2.64 28.54 28.54 0 0 0 7.65-7.12A42.56 42.56 0 0 0 50 56.12a53.14 53.14 0 0 0 3-9.36 56.35 56.35 0 0 0 .83-8.39 27.66 27.66 0 0 0-.97-8.37z" fill="#1a1a1a"></path><path d="M1.76 53.48L1 55.81a26.92 26.92 0 0 0-1 5.89C8.64 54.21 16.76 46 25.63 38.29l.11-.36.62-1.93q.35-1.1.79-2.24a15.15 15.15 0 0 1 .85-1.94c.1-.19.21-.34.31-.51A180.42 180.42 0 0 1 1.76 53.48z" fill="#f7931e"></path></g></g></svg></g></g><mask id="0e5fc850-1393-4ce5-9e08-dd3dbff0c036"><g fill="white"><svg xmlns="http://www.w3.org/2000/svg" viewBox="0.00023 0.00334 475.28979 489.28769" style="overflow: visible;" width="60" height="61.76715840187772" x="0" y="0" filtersec="colorsb8186175225"><g transform="scale(1, 1) skewX(0)"><path d="M348.28 47.86c-6.89-3.19-13.55-6.92-20.81-9.23 3.72 1.61 7.48 3.13 9.24 5.21.26.27 2 1 3 1.52l2.7 1.45c9.94 4.1 18.07 10.92 27.25 16.24-7.43-3.36-13.36-8.49-20.21-12.29a26.45 26.45 0 0 1 5.29 3.56 13.73 13.73 0 0 0 3.56 2.39c4.14 1.77 7.24 4.61 12.68 8C362 61.15 355.5 54.58 348.05 52c-2.14-.8-4.24-1.89-6.35-2.87 9.55 4.13 18.32 9.72 27.19 15.14 37.11 24.73 67.05 60.5 83.28 102.2 1 2.92 2.48 6.34 1.9 8a203 203 0 0 0-19.43-38.16c-3.33-5.32-6.17-11.08-10.53-16-23.45-29.73-53.95-55.26-89.17-69.94-9.75-3.8-19.81-8.42-30.05-10.6-12.7-3.3-25.68-6.38-38.7-6.79-19.66 0-40.35.27-59.59 3.39a208 208 0 0 0-72.79 26.84c-5.89 3.4-10.52 6.6-13 10.16 2.65-.37 9.1-5.37 12.19-5.62-12.37 8.32-24.35 17.94-33.43 28.6 15.43-13.86 33.3-24.79 51.63-33.58A223.51 223.51 0 0 1 211 43.42c20.09-3.73 40.85-3.5 61.15-1.49a229.19 229.19 0 0 0-40.24-.5l3.4-.19c21.89-2.39 44.07 1 65 7.13 2.6.71 4.74 1.35 6.59 2.06 10.29 3.77 20.75 6.72 30.44 11.33a94.88 94.88 0 0 1 17.28 9 157.39 157.39 0 0 1 16.29 10.61c-3.82-1.78-7.35-4.65-11.5-6.8C344 65 327.3 57.91 310 52.41a12.47 12.47 0 0 1 1.68 1.26c1 1.22 4.4 2.91 7.92 4.39 7.69 2.8 13.9 7.94 22 10.7 11.24 7.54 23.94 14.09 33.69 23.61 11.71 9.26 22.22 20.63 31.61 32.52 4 5.15 9.25 11.24 11.17 18-2.89-1.76-5.67-6.69-8.72-10.39-3.39-4.32-6.37-8.91-10.12-12.9a196.22 196.22 0 0 0-53.5-43.82c-6.72-4.22-14-7.44-21.17-10.9-6.47-2.07-12.48-3.34-19.5-6.31-2.77-.92-6.13-1.17-9.44-2.89-2-1-1.89.81-5.62-.32-5.39-1.76-11.18-1.73-16.7-2.68-13.38-1.68-27.3-2.53-40.47-.83-9.63.75-19.16 3-28.69 4.82l-14.57 4-13.82 5.23.43.3c-5.33 1.8-10.18 4.64-15.25 7.13-8.58 3.73-16.5 9.06-24.31 14-19.38 13.86-37.35 30.79-50.16 50.93-6.8 10.73-13.59 22.14-18.81 34-6.84 17.43-12.81 35.39-14.9 54.18a209.6 209.6 0 0 0 0 48.09 196.32 196.32 0 0 0 25.3 75.8c8.07 14.78 18.68 28 30.28 40.31a229.1 229.1 0 0 0 26.93 23.13c14.26 9.09 28.89 18.23 45.18 23.33 5.7 2.31 9.53 4.64 14.61 5.91 9.9 3.12 20.08 4.61 30.25 6.49 8.87.54 17.78 2 26.72 1.65.87 0 .57.26 1.11.33 10.83.16 21.45-.89 32-1.46a18.54 18.54 0 0 0 3.05-.54c9.66-2.83 19.61-3.91 29-7.5l14.92-5.3c.56 1.9-5.76 5.4-8.91 8.33 4.71-2.39 6.89-4 11-5.15 4.48-1.31 13.47-5.95 14-8 .5-1.28.82-1.73 3.5-3.14 2.1-1.11 4.73-2.84 4.44-1.44-.24 1.21 1.42-.1 2.72-1a10.52 10.52 0 0 1 3.45-1.85c3.21-.26 7.41-3.69 11.52-6.2A209.49 209.49 0 0 0 427.36 359c18.19-29.53 29.29-63.79 29.91-98.5.09-3.61.12-7.77 1-11.27a21.7 21.7 0 0 1 .23 6.25c-.89 36.37-10.8 72.72-30 103.91-7.49 13.15-17.1 25-27.34 36.12-3.81 4.63-8.44 8.42-12.78 12.53 6.66-5.4 13.26-10.8 18.77-17.5A71.62 71.62 0 0 1 391 406.39a54.18 54.18 0 0 1 5-3.58 9.34 9.34 0 0 0 3.11-2.71c2.44-3.61 5.68-6 9.94-10.52-5.11 7.81-12.07 13.18-17.37 18.51-5.28 6.24-12.6 10.92-19.25 15.93-6.31 5.44-14.36 8.64-21.35 13.51 2.89.27 3.41.28.55 2.11l14.88-9.06a222.48 222.48 0 0 0 81.89-100.14c1.07-2.85 2.14-6.31 3.65-7.19a183.6 183.6 0 0 1-17.25 39 172.22 172.22 0 0 1-10.6 15.95c-20.76 32.13-52.9 56.9-87.67 73.42a219.4 219.4 0 0 1-30.53 11c-12.82 4.16-26.33 5.16-39.36 7.62-19.89 3.13-41.6 1.82-61.09-2.41a233.55 233.55 0 0 1-73.64-29.43c-3.52-2.2-6.66-3.87-9.56-5.32l2.17 1.42a33.72 33.72 0 0 1-6.6-3.75l-.8-.43c.92 2.86 8.41 7 10.25 9.34-13.78-7.62-26.15-17.92-37.95-27 12.38 12.89 26.16 24.71 41.53 34.12a74.76 74.76 0 0 0 12.52 6.57c3.44 1.46 7.24 3.23 10.53 5 7.84 4.18 16.58 6.47 24.79 10.12 3.43 1.12 7.59 3 10.84 3.29 5.95.65 12.31 2.6 18.49 3.21 15.78 2.49 31.58 2.4 47.84 3a48.72 48.72 0 0 0 5.73-.41 125.19 125.19 0 0 0 13.45-1.56c6.45-1.13 13.2-1.58 19.25-3.11 23.28-5.95 46.08-13.85 67.17-25.55 2.56-1.5 4.72-2.7 6.7-3.64 10.49-6.08 19.78-13.84 28.35-21.84 10.39-9.73 20.53-19.85 29-31.2-1.95 4.22-5.35 7.92-8.69 11.8-12.7 15.31-28.14 28.3-44.72 40a15 15 0 0 1 2.23-.65c1.78 0 5.36-2.35 9-4.75 7.79-5 15.55-9.73 22-17.11 12.5-9.41 21.88-23 32-34.73 9.59-14.38 18.72-29.62 25.44-45.82a163.12 163.12 0 0 1 9.21-22.76c.79 3.92-1.92 10.12-3.77 15.44a129.6 129.6 0 0 1-7.42 17.89 237.34 237.34 0 0 1-46.62 67.36c-7.09 6.19-13.84 12.71-21.38 18.46-6.37 4.81-11.27 10.55-19.52 14.57-3.07 1.63-6.17 4.19-10.29 5.7-2.55.83-.95 2.29-5.27 4.17l-18.24 9c-15.06 6.27-31 10.79-46.53 14.67-11.43 2.29-23.06 4.56-34.92 4.85a157.09 157.09 0 0 1-18.37.45l-18-.63.32.47-20.57-2.7a269.25 269.25 0 0 1-33.5-8.93c-28.19-8.94-54.24-24.62-77.36-42.88-12.32-9.94-23.64-22.08-33.76-34.63-15-18-25.67-39.14-34.69-60.58C15 320.83 9.6 301.47 7.46 281.72a241.54 241.54 0 0 1 7.89-97.89 228.07 228.07 0 0 1 25.14-55.9c7.25-12.3 16.21-23.61 25.51-34.29 13.38-15.43 29.21-28.43 45.7-40.21 6-4.21 11.3-5.52 16.53-8.75a200.37 200.37 0 0 1 33-15.11 191.75 191.75 0 0 1 30-8.57c1-.23.71.12 1.33.06a150.22 150.22 0 0 1 36.52-3.69 35.13 35.13 0 0 0 3.52-.22c11.46-1.2 22.67.26 33.88 1.26a90.16 90.16 0 0 1 17.56 3c-.51 1.47-5.6 1.27-9.92 1.76 8.51 1.49 17.19 2.22 25.5 4.72a7.71 7.71 0 0 0 1.74 0c1.32-.51 1.92-.58 5.1.43 2.49.79 5.87 1.54 4.53 2.28-.2.12.12.27.12.27 6.15 1.54 12 4.07 18 6.19 46 18.39 86.21 51.61 111.86 94.17C460.74 163 471.44 199.89 474 237.07c.3 3.87.7 8.38.23 12.15a24.91 24.91 0 0 1-.88-6.68C472 203.64 460.81 165 440.07 132a212.79 212.79 0 0 0-29.28-38.23 230 230 0 0 0-62.51-45.91zM238.07 19.1c-.83.82 1.21 1.18 3.76 1.37 1.73.17 3.69 0 5.93.3h6.36c1.38 0 4.57.28 3.49-.53-.92-.68-2.67-.64-4.49-.38-3.43.53-6.14.3-7.5-.85-.53-.47-1-1.14-4.38-.82a6.27 6.27 0 0 0-3.17.91zm-139.61 84l-13.1 14.63.22.05zM346 442.52a137.52 137.52 0 0 1-29.65 11.13c-7.12 2.5-15 4.11-18.89 6.66l-1.36.58a213.91 213.91 0 0 0 49.9-18.37zm39.38-31.71l-.69.63.31-.25zm-92.07 39.66c-.58.95 1.29.95 3.61.67l5.36-.88 5.56-1.69c1.19-.38 3.94-1.35 2.76-1.68-1-.31-2.41.41-3.92 1.08-2.81 1.39-5.22 2.06-6.73 1.12-.58-.36-1.16-.93-4 0a5.23 5.23 0 0 0-2.66 1.38zM194.65 47.6l5.72-1.15c1.52-.21 3.36-1 5-1.35l8-1.45a119.44 119.44 0 0 0-18.72 3.95zm-72.78 35.17c4.39-3.16 8.62-6.59 13.58-8.9 2.92-1.52 6.76-3 9-4.9 4-3.82 9.86-5.68 14.78-8.35a91.6 91.6 0 0 1 10.57-5c-17.01 7.02-33.43 15.76-47.93 27.15zM324.5 41.82h-.07c-8-3-16.13-6.18-24.79-7.84l.21.26a158.57 158.57 0 0 1 24.65 7.58z"></path><path d="M143.37 26.86l1.5-.37c1.29-.14 5.39-2.21 7.81-3.23l21.71-8.94c7.65-2.72 16.93-5.72 25.9-7.13 12.41-1.84 24.88-4 37.69-3.53-17.75-.3-36.21.69-54.21 6.48-4.25 1.38-9.07 2.07-13.44 3.65a76 76 0 0 0-9.4 3.49c-9.33 4.27-18.61 8.53-27.83 11.72-4.17 1.38-5.57 3.41-8.08 4.53-9.32 3.84-19.36 11.77-27.78 16.15C91 54.43 84.84 59.32 79 64.66a121.81 121.81 0 0 0-16.79 16.55C55.05 88.91 49 97.5 42.11 105.6c-5.07 5.69-8.39 12.83-12.54 19.26a249.39 249.39 0 0 0-28.3 73.45c1.3-1.24 2.08-3.58 2.83-6.46 4.66-20.67 13.49-39.88 23.12-58.4 4.7-8.4 10.56-16.71 14.93-25.06a17.13 17.13 0 0 1 3-3.76c7.29-7 14.23-16.77 21.48-24.35a97.42 97.42 0 0 1 16.08-15c3.34-2.39 6.24-5.37 9.73-7.68 6.94-4.74 13.49-10 20.75-14.27 5-3 10.54-6.08 14.91-9.13 5.14-3.31 9.72-5.88 14.87-7.18-21.59 9.72-41.22 23.34-59 38.69a253.52 253.52 0 0 0-35 37.53c-23.07 28.88-38.44 64.74-45 101.6C-.75 228-.65 251.73 1.13 275.18l.74-.05a279.7 279.7 0 0 1 4.61-75.69 263.41 263.41 0 0 1 27.1-70.77c25.15-43.89 63.55-80.5 109.79-101.81zM475.29 163.78l-.82-3A239.14 239.14 0 0 0 425.37 83c20.94 23.8 39.03 50.69 49.92 80.78zM429.05 317.38a22.19 22.19 0 0 0-1.11 2.24 200.53 200.53 0 0 1-38.78 62.17c18.07-18.04 30.77-40.79 39.89-64.41zM81.46 338.85c8.07 13.61 15.83 27.68 27 39.19a83.55 83.55 0 0 0 16.15 15.26 16.44 16.44 0 0 1 2.67 2.49c5 5.9 12.58 11.47 19.73 15.16l14.61 8.66c2.7 1.69 5.55 3.17 8.41 4.69 5.84 2.9 12.06 5 18.12 7.5a91.47 91.47 0 0 0 13.18 3.45c5.28 1.09 9.73 1.08 14 3.42a26.17 26.17 0 0 0 6.51 1.32 96.7 96.7 0 0 0 18.39.42c6.35-.11 13.78-1.16 20.83-1.18 9.71-.38 19.35-2.3 29.1-3.88-13.72 2.36-27.63 2.51-42.05 3.65-3.43.3-7.13-.33-10.69-.53a45.89 45.89 0 0 0-7.69-.31c-7.9.43-15.79-1.41-22.8-3.77-3.08-1.33-4.95-.7-6.89-1.61-7.06-2.9-16.67-4.78-22.62-9.11-11.15-3.94-21.32-10.3-31.42-16.37-7-3.71-13.09-8.94-19-14.13-3.83-4.25-8.33-7.9-12.57-11.77a210.88 210.88 0 0 1-34.13-47.76c-.41 1.42.2 3.19 1.16 5.21z"></path><path d="M80.9 155.55c-2.31 3.24-3.65 6.89-5 10.39-1.93 5.35-5.47 9.9-7.15 15.58-1.27 3.84-2.86 7.66-4 11.79 3.42-4.78 4.88-12.73 14.08-31.52a181.51 181.51 0 0 1 19.08-29.64l-.93.26a181.69 181.69 0 0 0-16.08 23.14zM97.32 375.32A169.45 169.45 0 0 0 149 419.88c-19.55-11.98-36.65-27.37-51.68-44.56zM296.63 431.13c7.56-1.09 14.17-4.94 21.37-6.9a225 225 0 0 1-56.61 11.29c6.68.73 12.91 0 20.38-1.17 4.85-.79 9.89-2.35 14.86-3.22z"></path><path d="M69.55 329.83a163.66 163.66 0 0 0 22.08 38.4l.42-.48a175.52 175.52 0 0 1-20.87-35.92c21.13 45.68 61.3 82.31 108.66 99.11A187.31 187.31 0 0 1 118.31 394c-10-9-19.56-18.67-26.92-30.18-16.17-23.94-29.17-51-33.85-80-3.49-18.05-3.44-36.64-2.17-54.95l-.73-.1c-3.75 34.06.9 69.54 15.51 100.81zM71.15 422.67c-3.42-3.82-6.75-7.5-10.31-10.84-5.63-4.9-8.92-11.63-13.61-17.61A129.61 129.61 0 0 1 38 381c2.83 6.77 8.08 16.18 26.66 36.25A236.15 236.15 0 0 0 99 447.93l-.45-1.07c-9.99-7.1-18.62-15.8-27.4-24.19zM76.67 79c-20.21 19.35-37.52 42.2-48.95 68.11A273.23 273.23 0 0 1 76.67 79zM247.41.82c9.89 1 19.79.36 29.45 2.18a229.18 229.18 0 0 0-76.48.44l27-2c6.46-.52 13.44-.73 20.03-.62zM7.48 210.08c3.25-18 8.87-35.67 15.68-52.7l-.62-.1c-6.9 16.92-12.72 34.45-15.67 52.58z"></path></g><defs></defs></svg></g> <g fill="black" filter="url(#b4371da9-e195-4586-b25e-dc3cc8f7779a)"><svg xmlns="http://www.w3.org/2000/svg" viewBox="-0.038247983902692795 0 53.88772964477539 75.27935028076172" width="40" height="41.17811" x="10" y="10.294524200938863" class="image-svg-icon"><g><g><path d="M0 61.7a13.26 13.26 0 0 0 1 6.15 9.16 9.16 0 0 0 .66 1.25 245.38 245.38 0 0 0 21.72-24L25.3 39h.09l.24-.74C16.76 46 8.64 54.21 0 61.7z"></path><path d="M23.42 45.13a245.38 245.38 0 0 1-21.72 24 11.31 11.31 0 0 0 3.78 3.63 10.24 10.24 0 0 0 1.5.75c4.59-6 8.63-12.7 13.25-18z"></path><path d="M52.86 30a14.28 14.28 0 0 0-3.69-6.42A9.78 9.78 0 0 0 42 21a14.57 14.57 0 0 0-7.87 2.11 19.41 19.41 0 0 0-5.67 5.36l3-9.58a26.88 26.88 0 0 0 1-5.89 13.26 13.26 0 0 0-1-6.15A10.69 10.69 0 0 0 27 2q-3.21-2-9.27-2h-4.38a3.74 3.74 0 0 1 1.93 2.46A11.58 11.58 0 0 1 15.64 6a17.67 17.67 0 0 1-.48 3.43q-.4 1.58-.57 2.11l-12.82 42a180.42 180.42 0 0 0 26.57-22.23 8.12 8.12 0 0 1 2.41-2.74 2.51 2.51 0 0 1 2.37-.44 2.72 2.72 0 0 1 1.27 2.2 10.54 10.54 0 0 1-.56 4.67l-8.44 26.44a10.07 10.07 0 0 1-2.33 4.26 3.32 3.32 0 0 1-2.55 1.14 2.36 2.36 0 0 1-1.85-1.63 6.76 6.76 0 0 1-.13-4l.88-3.08.26-.53h-.09l.65-2.11c-4.63 5.32-8.67 12-13.25 18a20.78 20.78 0 0 0 7.77 1.23h4.39a3.56 3.56 0 0 1-1.58-1.49 6.42 6.42 0 0 1-.7-2.15 9.78 9.78 0 0 1 0-2.46q.13-1.27.31-2.42a13.53 13.53 0 0 0 1 3.38A9.49 9.49 0 0 0 20 72.43a8.71 8.71 0 0 0 3 2 12 12 0 0 0 4.18.83 17.19 17.19 0 0 0 10-2.64 28.54 28.54 0 0 0 7.65-7.12A42.56 42.56 0 0 0 50 56.12a53.14 53.14 0 0 0 3-9.36 56.35 56.35 0 0 0 .83-8.39 27.66 27.66 0 0 0-.97-8.37z"></path><path d="M1.76 53.48L1 55.81a26.92 26.92 0 0 0-1 5.89C8.64 54.21 16.76 46 25.63 38.29l.11-.36.62-1.93q.35-1.1.79-2.24a15.15 15.15 0 0 1 .85-1.94c.1-.19.21-.34.31-.51A180.42 180.42 0 0 1 1.76 53.48z"></path></g></g></svg></g><defs><filter id="b4371da9-e195-4586-b25e-dc3cc8f7779a"><feGaussianBlur in="SourceGraphic" stdDeviation="1.26"></feGaussianBlur><feComponentTransfer><feFuncA type="discrete" tableValues="0 1 1 1 1 1 1 1 1 1 1 1 1 1 0"></feFuncA></feComponentTransfer></filter></defs></mask><mask id="dec5fbb2-252e-4d33-afc3-e902883b4d1d"><g mask="url(#0e5fc850-1393-4ce5-9e08-dd3dbff0c036)" fill="white"><svg xmlns="http://www.w3.org/2000/svg" viewBox="0.00023 0.00334 475.28979 489.28769" style="overflow: visible;" width="60" height="61.76715840187772" x="0" y="0" filtersec="colorsb8186175225"><g transform="scale(1, 1) skewX(0)"><path d="M348.28 47.86c-6.89-3.19-13.55-6.92-20.81-9.23 3.72 1.61 7.48 3.13 9.24 5.21.26.27 2 1 3 1.52l2.7 1.45c9.94 4.1 18.07 10.92 27.25 16.24-7.43-3.36-13.36-8.49-20.21-12.29a26.45 26.45 0 0 1 5.29 3.56 13.73 13.73 0 0 0 3.56 2.39c4.14 1.77 7.24 4.61 12.68 8C362 61.15 355.5 54.58 348.05 52c-2.14-.8-4.24-1.89-6.35-2.87 9.55 4.13 18.32 9.72 27.19 15.14 37.11 24.73 67.05 60.5 83.28 102.2 1 2.92 2.48 6.34 1.9 8a203 203 0 0 0-19.43-38.16c-3.33-5.32-6.17-11.08-10.53-16-23.45-29.73-53.95-55.26-89.17-69.94-9.75-3.8-19.81-8.42-30.05-10.6-12.7-3.3-25.68-6.38-38.7-6.79-19.66 0-40.35.27-59.59 3.39a208 208 0 0 0-72.79 26.84c-5.89 3.4-10.52 6.6-13 10.16 2.65-.37 9.1-5.37 12.19-5.62-12.37 8.32-24.35 17.94-33.43 28.6 15.43-13.86 33.3-24.79 51.63-33.58A223.51 223.51 0 0 1 211 43.42c20.09-3.73 40.85-3.5 61.15-1.49a229.19 229.19 0 0 0-40.24-.5l3.4-.19c21.89-2.39 44.07 1 65 7.13 2.6.71 4.74 1.35 6.59 2.06 10.29 3.77 20.75 6.72 30.44 11.33a94.88 94.88 0 0 1 17.28 9 157.39 157.39 0 0 1 16.29 10.61c-3.82-1.78-7.35-4.65-11.5-6.8C344 65 327.3 57.91 310 52.41a12.47 12.47 0 0 1 1.68 1.26c1 1.22 4.4 2.91 7.92 4.39 7.69 2.8 13.9 7.94 22 10.7 11.24 7.54 23.94 14.09 33.69 23.61 11.71 9.26 22.22 20.63 31.61 32.52 4 5.15 9.25 11.24 11.17 18-2.89-1.76-5.67-6.69-8.72-10.39-3.39-4.32-6.37-8.91-10.12-12.9a196.22 196.22 0 0 0-53.5-43.82c-6.72-4.22-14-7.44-21.17-10.9-6.47-2.07-12.48-3.34-19.5-6.31-2.77-.92-6.13-1.17-9.44-2.89-2-1-1.89.81-5.62-.32-5.39-1.76-11.18-1.73-16.7-2.68-13.38-1.68-27.3-2.53-40.47-.83-9.63.75-19.16 3-28.69 4.82l-14.57 4-13.82 5.23.43.3c-5.33 1.8-10.18 4.64-15.25 7.13-8.58 3.73-16.5 9.06-24.31 14-19.38 13.86-37.35 30.79-50.16 50.93-6.8 10.73-13.59 22.14-18.81 34-6.84 17.43-12.81 35.39-14.9 54.18a209.6 209.6 0 0 0 0 48.09 196.32 196.32 0 0 0 25.3 75.8c8.07 14.78 18.68 28 30.28 40.31a229.1 229.1 0 0 0 26.93 23.13c14.26 9.09 28.89 18.23 45.18 23.33 5.7 2.31 9.53 4.64 14.61 5.91 9.9 3.12 20.08 4.61 30.25 6.49 8.87.54 17.78 2 26.72 1.65.87 0 .57.26 1.11.33 10.83.16 21.45-.89 32-1.46a18.54 18.54 0 0 0 3.05-.54c9.66-2.83 19.61-3.91 29-7.5l14.92-5.3c.56 1.9-5.76 5.4-8.91 8.33 4.71-2.39 6.89-4 11-5.15 4.48-1.31 13.47-5.95 14-8 .5-1.28.82-1.73 3.5-3.14 2.1-1.11 4.73-2.84 4.44-1.44-.24 1.21 1.42-.1 2.72-1a10.52 10.52 0 0 1 3.45-1.85c3.21-.26 7.41-3.69 11.52-6.2A209.49 209.49 0 0 0 427.36 359c18.19-29.53 29.29-63.79 29.91-98.5.09-3.61.12-7.77 1-11.27a21.7 21.7 0 0 1 .23 6.25c-.89 36.37-10.8 72.72-30 103.91-7.49 13.15-17.1 25-27.34 36.12-3.81 4.63-8.44 8.42-12.78 12.53 6.66-5.4 13.26-10.8 18.77-17.5A71.62 71.62 0 0 1 391 406.39a54.18 54.18 0 0 1 5-3.58 9.34 9.34 0 0 0 3.11-2.71c2.44-3.61 5.68-6 9.94-10.52-5.11 7.81-12.07 13.18-17.37 18.51-5.28 6.24-12.6 10.92-19.25 15.93-6.31 5.44-14.36 8.64-21.35 13.51 2.89.27 3.41.28.55 2.11l14.88-9.06a222.48 222.48 0 0 0 81.89-100.14c1.07-2.85 2.14-6.31 3.65-7.19a183.6 183.6 0 0 1-17.25 39 172.22 172.22 0 0 1-10.6 15.95c-20.76 32.13-52.9 56.9-87.67 73.42a219.4 219.4 0 0 1-30.53 11c-12.82 4.16-26.33 5.16-39.36 7.62-19.89 3.13-41.6 1.82-61.09-2.41a233.55 233.55 0 0 1-73.64-29.43c-3.52-2.2-6.66-3.87-9.56-5.32l2.17 1.42a33.72 33.72 0 0 1-6.6-3.75l-.8-.43c.92 2.86 8.41 7 10.25 9.34-13.78-7.62-26.15-17.92-37.95-27 12.38 12.89 26.16 24.71 41.53 34.12a74.76 74.76 0 0 0 12.52 6.57c3.44 1.46 7.24 3.23 10.53 5 7.84 4.18 16.58 6.47 24.79 10.12 3.43 1.12 7.59 3 10.84 3.29 5.95.65 12.31 2.6 18.49 3.21 15.78 2.49 31.58 2.4 47.84 3a48.72 48.72 0 0 0 5.73-.41 125.19 125.19 0 0 0 13.45-1.56c6.45-1.13 13.2-1.58 19.25-3.11 23.28-5.95 46.08-13.85 67.17-25.55 2.56-1.5 4.72-2.7 6.7-3.64 10.49-6.08 19.78-13.84 28.35-21.84 10.39-9.73 20.53-19.85 29-31.2-1.95 4.22-5.35 7.92-8.69 11.8-12.7 15.31-28.14 28.3-44.72 40a15 15 0 0 1 2.23-.65c1.78 0 5.36-2.35 9-4.75 7.79-5 15.55-9.73 22-17.11 12.5-9.41 21.88-23 32-34.73 9.59-14.38 18.72-29.62 25.44-45.82a163.12 163.12 0 0 1 9.21-22.76c.79 3.92-1.92 10.12-3.77 15.44a129.6 129.6 0 0 1-7.42 17.89 237.34 237.34 0 0 1-46.62 67.36c-7.09 6.19-13.84 12.71-21.38 18.46-6.37 4.81-11.27 10.55-19.52 14.57-3.07 1.63-6.17 4.19-10.29 5.7-2.55.83-.95 2.29-5.27 4.17l-18.24 9c-15.06 6.27-31 10.79-46.53 14.67-11.43 2.29-23.06 4.56-34.92 4.85a157.09 157.09 0 0 1-18.37.45l-18-.63.32.47-20.57-2.7a269.25 269.25 0 0 1-33.5-8.93c-28.19-8.94-54.24-24.62-77.36-42.88-12.32-9.94-23.64-22.08-33.76-34.63-15-18-25.67-39.14-34.69-60.58C15 320.83 9.6 301.47 7.46 281.72a241.54 241.54 0 0 1 7.89-97.89 228.07 228.07 0 0 1 25.14-55.9c7.25-12.3 16.21-23.61 25.51-34.29 13.38-15.43 29.21-28.43 45.7-40.21 6-4.21 11.3-5.52 16.53-8.75a200.37 200.37 0 0 1 33-15.11 191.75 191.75 0 0 1 30-8.57c1-.23.71.12 1.33.06a150.22 150.22 0 0 1 36.52-3.69 35.13 35.13 0 0 0 3.52-.22c11.46-1.2 22.67.26 33.88 1.26a90.16 90.16 0 0 1 17.56 3c-.51 1.47-5.6 1.27-9.92 1.76 8.51 1.49 17.19 2.22 25.5 4.72a7.71 7.71 0 0 0 1.74 0c1.32-.51 1.92-.58 5.1.43 2.49.79 5.87 1.54 4.53 2.28-.2.12.12.27.12.27 6.15 1.54 12 4.07 18 6.19 46 18.39 86.21 51.61 111.86 94.17C460.74 163 471.44 199.89 474 237.07c.3 3.87.7 8.38.23 12.15a24.91 24.91 0 0 1-.88-6.68C472 203.64 460.81 165 440.07 132a212.79 212.79 0 0 0-29.28-38.23 230 230 0 0 0-62.51-45.91zM238.07 19.1c-.83.82 1.21 1.18 3.76 1.37 1.73.17 3.69 0 5.93.3h6.36c1.38 0 4.57.28 3.49-.53-.92-.68-2.67-.64-4.49-.38-3.43.53-6.14.3-7.5-.85-.53-.47-1-1.14-4.38-.82a6.27 6.27 0 0 0-3.17.91zm-139.61 84l-13.1 14.63.22.05zM346 442.52a137.52 137.52 0 0 1-29.65 11.13c-7.12 2.5-15 4.11-18.89 6.66l-1.36.58a213.91 213.91 0 0 0 49.9-18.37zm39.38-31.71l-.69.63.31-.25zm-92.07 39.66c-.58.95 1.29.95 3.61.67l5.36-.88 5.56-1.69c1.19-.38 3.94-1.35 2.76-1.68-1-.31-2.41.41-3.92 1.08-2.81 1.39-5.22 2.06-6.73 1.12-.58-.36-1.16-.93-4 0a5.23 5.23 0 0 0-2.66 1.38zM194.65 47.6l5.72-1.15c1.52-.21 3.36-1 5-1.35l8-1.45a119.44 119.44 0 0 0-18.72 3.95zm-72.78 35.17c4.39-3.16 8.62-6.59 13.58-8.9 2.92-1.52 6.76-3 9-4.9 4-3.82 9.86-5.68 14.78-8.35a91.6 91.6 0 0 1 10.57-5c-17.01 7.02-33.43 15.76-47.93 27.15zM324.5 41.82h-.07c-8-3-16.13-6.18-24.79-7.84l.21.26a158.57 158.57 0 0 1 24.65 7.58z"></path><path d="M143.37 26.86l1.5-.37c1.29-.14 5.39-2.21 7.81-3.23l21.71-8.94c7.65-2.72 16.93-5.72 25.9-7.13 12.41-1.84 24.88-4 37.69-3.53-17.75-.3-36.21.69-54.21 6.48-4.25 1.38-9.07 2.07-13.44 3.65a76 76 0 0 0-9.4 3.49c-9.33 4.27-18.61 8.53-27.83 11.72-4.17 1.38-5.57 3.41-8.08 4.53-9.32 3.84-19.36 11.77-27.78 16.15C91 54.43 84.84 59.32 79 64.66a121.81 121.81 0 0 0-16.79 16.55C55.05 88.91 49 97.5 42.11 105.6c-5.07 5.69-8.39 12.83-12.54 19.26a249.39 249.39 0 0 0-28.3 73.45c1.3-1.24 2.08-3.58 2.83-6.46 4.66-20.67 13.49-39.88 23.12-58.4 4.7-8.4 10.56-16.71 14.93-25.06a17.13 17.13 0 0 1 3-3.76c7.29-7 14.23-16.77 21.48-24.35a97.42 97.42 0 0 1 16.08-15c3.34-2.39 6.24-5.37 9.73-7.68 6.94-4.74 13.49-10 20.75-14.27 5-3 10.54-6.08 14.91-9.13 5.14-3.31 9.72-5.88 14.87-7.18-21.59 9.72-41.22 23.34-59 38.69a253.52 253.52 0 0 0-35 37.53c-23.07 28.88-38.44 64.74-45 101.6C-.75 228-.65 251.73 1.13 275.18l.74-.05a279.7 279.7 0 0 1 4.61-75.69 263.41 263.41 0 0 1 27.1-70.77c25.15-43.89 63.55-80.5 109.79-101.81zM475.29 163.78l-.82-3A239.14 239.14 0 0 0 425.37 83c20.94 23.8 39.03 50.69 49.92 80.78zM429.05 317.38a22.19 22.19 0 0 0-1.11 2.24 200.53 200.53 0 0 1-38.78 62.17c18.07-18.04 30.77-40.79 39.89-64.41zM81.46 338.85c8.07 13.61 15.83 27.68 27 39.19a83.55 83.55 0 0 0 16.15 15.26 16.44 16.44 0 0 1 2.67 2.49c5 5.9 12.58 11.47 19.73 15.16l14.61 8.66c2.7 1.69 5.55 3.17 8.41 4.69 5.84 2.9 12.06 5 18.12 7.5a91.47 91.47 0 0 0 13.18 3.45c5.28 1.09 9.73 1.08 14 3.42a26.17 26.17 0 0 0 6.51 1.32 96.7 96.7 0 0 0 18.39.42c6.35-.11 13.78-1.16 20.83-1.18 9.71-.38 19.35-2.3 29.1-3.88-13.72 2.36-27.63 2.51-42.05 3.65-3.43.3-7.13-.33-10.69-.53a45.89 45.89 0 0 0-7.69-.31c-7.9.43-15.79-1.41-22.8-3.77-3.08-1.33-4.95-.7-6.89-1.61-7.06-2.9-16.67-4.78-22.62-9.11-11.15-3.94-21.32-10.3-31.42-16.37-7-3.71-13.09-8.94-19-14.13-3.83-4.25-8.33-7.9-12.57-11.77a210.88 210.88 0 0 1-34.13-47.76c-.41 1.42.2 3.19 1.16 5.21z"></path><path d="M80.9 155.55c-2.31 3.24-3.65 6.89-5 10.39-1.93 5.35-5.47 9.9-7.15 15.58-1.27 3.84-2.86 7.66-4 11.79 3.42-4.78 4.88-12.73 14.08-31.52a181.51 181.51 0 0 1 19.08-29.64l-.93.26a181.69 181.69 0 0 0-16.08 23.14zM97.32 375.32A169.45 169.45 0 0 0 149 419.88c-19.55-11.98-36.65-27.37-51.68-44.56zM296.63 431.13c7.56-1.09 14.17-4.94 21.37-6.9a225 225 0 0 1-56.61 11.29c6.68.73 12.91 0 20.38-1.17 4.85-.79 9.89-2.35 14.86-3.22z"></path><path d="M69.55 329.83a163.66 163.66 0 0 0 22.08 38.4l.42-.48a175.52 175.52 0 0 1-20.87-35.92c21.13 45.68 61.3 82.31 108.66 99.11A187.31 187.31 0 0 1 118.31 394c-10-9-19.56-18.67-26.92-30.18-16.17-23.94-29.17-51-33.85-80-3.49-18.05-3.44-36.64-2.17-54.95l-.73-.1c-3.75 34.06.9 69.54 15.51 100.81zM71.15 422.67c-3.42-3.82-6.75-7.5-10.31-10.84-5.63-4.9-8.92-11.63-13.61-17.61A129.61 129.61 0 0 1 38 381c2.83 6.77 8.08 16.18 26.66 36.25A236.15 236.15 0 0 0 99 447.93l-.45-1.07c-9.99-7.1-18.62-15.8-27.4-24.19zM76.67 79c-20.21 19.35-37.52 42.2-48.95 68.11A273.23 273.23 0 0 1 76.67 79zM247.41.82c9.89 1 19.79.36 29.45 2.18a229.18 229.18 0 0 0-76.48.44l27-2c6.46-.52 13.44-.73 20.03-.62zM7.48 210.08c3.25-18 8.87-35.67 15.68-52.7l-.62-.1c-6.9 16.92-12.72 34.45-15.67 52.58z"></path></g><defs></defs></svg></g> <g fill="black" filter="url(#85510c7f-b2d9-4bfd-bc05-34257676220f)"><svg xmlns="http://www.w3.org/2000/svg" viewBox="-0.038247983902692795 0 53.88772964477539 75.27935028076172" width="40" height="41.17811" x="10" y="10.294524200938863" class="image-svg-icon"><g><g><path d="M0 61.7a13.26 13.26 0 0 0 1 6.15 9.16 9.16 0 0 0 .66 1.25 245.38 245.38 0 0 0 21.72-24L25.3 39h.09l.24-.74C16.76 46 8.64 54.21 0 61.7z"></path><path d="M23.42 45.13a245.38 245.38 0 0 1-21.72 24 11.31 11.31 0 0 0 3.78 3.63 10.24 10.24 0 0 0 1.5.75c4.59-6 8.63-12.7 13.25-18z"></path><path d="M52.86 30a14.28 14.28 0 0 0-3.69-6.42A9.78 9.78 0 0 0 42 21a14.57 14.57 0 0 0-7.87 2.11 19.41 19.41 0 0 0-5.67 5.36l3-9.58a26.88 26.88 0 0 0 1-5.89 13.26 13.26 0 0 0-1-6.15A10.69 10.69 0 0 0 27 2q-3.21-2-9.27-2h-4.38a3.74 3.74 0 0 1 1.93 2.46A11.58 11.58 0 0 1 15.64 6a17.67 17.67 0 0 1-.48 3.43q-.4 1.58-.57 2.11l-12.82 42a180.42 180.42 0 0 0 26.57-22.23 8.12 8.12 0 0 1 2.41-2.74 2.51 2.51 0 0 1 2.37-.44 2.72 2.72 0 0 1 1.27 2.2 10.54 10.54 0 0 1-.56 4.67l-8.44 26.44a10.07 10.07 0 0 1-2.33 4.26 3.32 3.32 0 0 1-2.55 1.14 2.36 2.36 0 0 1-1.85-1.63 6.76 6.76 0 0 1-.13-4l.88-3.08.26-.53h-.09l.65-2.11c-4.63 5.32-8.67 12-13.25 18a20.78 20.78 0 0 0 7.77 1.23h4.39a3.56 3.56 0 0 1-1.58-1.49 6.42 6.42 0 0 1-.7-2.15 9.78 9.78 0 0 1 0-2.46q.13-1.27.31-2.42a13.53 13.53 0 0 0 1 3.38A9.49 9.49 0 0 0 20 72.43a8.71 8.71 0 0 0 3 2 12 12 0 0 0 4.18.83 17.19 17.19 0 0 0 10-2.64 28.54 28.54 0 0 0 7.65-7.12A42.56 42.56 0 0 0 50 56.12a53.14 53.14 0 0 0 3-9.36 56.35 56.35 0 0 0 .83-8.39 27.66 27.66 0 0 0-.97-8.37z"></path><path d="M1.76 53.48L1 55.81a26.92 26.92 0 0 0-1 5.89C8.64 54.21 16.76 46 25.63 38.29l.11-.36.62-1.93q.35-1.1.79-2.24a15.15 15.15 0 0 1 .85-1.94c.1-.19.21-.34.31-.51A180.42 180.42 0 0 1 1.76 53.48z"></path></g></g></svg></g><defs><filter id="85510c7f-b2d9-4bfd-bc05-34257676220f"><feGaussianBlur in="SourceGraphic" stdDeviation="1.26"></feGaussianBlur><feComponentTransfer><feFuncA type="discrete" tableValues="0 1 1 1 1 1 1 1 1 1 1 1 1 1 0"></feFuncA></feComponentTransfer></filter></defs></mask></svg> </g></g></g><g transform="translate(63, 15.951644832574452)"><g fill="#1A1A1A" transform="scale(1)"><path d="M7.67-33.98Q5.64-33.98 4.30-35.26Q2.96-36.55 2.96-38.47L2.96-38.47Q2.96-40.39 4.30-41.68Q5.64-42.96 7.67-42.96L7.67-42.96Q9.70-42.96 11.04-41.68Q12.38-40.39 12.38-38.47L12.38-38.47Q12.38-36.55 11.04-35.26Q9.70-33.98 7.67-33.98L7.67-33.98ZM3.78-30.36L11.45-30.36L11.45 0L3.78 0L3.78-30.36Z" transform="translate(-2.9592032109409843, 42.96324661810614)"></path></g></g><g transform="translate(76, 15.951644832574452)"><g fill="#1A1A1A" transform="scale(1)"><path d="M19.51-24.06L12.71-24.06L12.71-9.37Q12.71-7.84 13.45-7.15Q14.19-6.47 15.95-6.47L15.95-6.47L19.51-6.47L19.51 0L14.69 0Q4.99 0 4.99-9.43L4.99-9.43L4.99-24.06L1.37-24.06L1.37-30.36L4.99-30.36L4.99-37.87L12.71-37.87L12.71-30.36L19.51-30.36L19.51-24.06Z" transform="translate(-1.3700014865467518, 42.96324661810614)"></path></g></g><g transform="translate(98, 15.951644832574452)"><g fill="#1A1A1A" transform="scale(1)"><path d="M17.70-30.36L17.70-24.06L12.38-24.06L12.38 0L4.60 0L4.60-24.06L1.15-24.06L1.15-30.36L4.60-30.36L4.60-31.89Q4.60-37.48 7.78-40.11Q10.96-42.74 17.37-42.58L17.37-42.58L17.37-36.11Q14.58-36.17 13.48-35.18Q12.38-34.20 12.38-31.62L12.38-31.62L12.38-30.36L17.70-30.36Z" transform="translate(-1.1508012486992714, 42.96324661810614)"></path></g></g><g transform="translate(118, 15.951644832574452)"><g fill="#1A1A1A" transform="scale(1)"><path d="M7.67-33.98Q5.64-33.98 4.30-35.26Q2.96-36.55 2.96-38.47L2.96-38.47Q2.96-40.39 4.30-41.68Q5.64-42.96 7.67-42.96L7.67-42.96Q9.70-42.96 11.04-41.68Q12.38-40.39 12.38-38.47L12.38-38.47Q12.38-36.55 11.04-35.26Q9.70-33.98 7.67-33.98L7.67-33.98ZM3.78-30.36L11.45-30.36L11.45 0L3.78 0L3.78-30.36Z" transform="translate(-2.9592032109409843, 42.96324661810614)"></path></g></g><g transform="translate(131, 15.951644832574452)"><g fill="#1A1A1A" transform="scale(1)"><path d="M11.45-25.65Q12.93-28.06 15.32-29.43Q17.70-30.80 20.77-30.80L20.77-30.80L20.77-22.74L18.74-22.74Q15.12-22.74 13.29-21.04Q11.45-19.34 11.45-15.12L11.45-15.12L11.45 0L3.78 0L3.78-30.36L11.45-30.36L11.45-25.65Z" transform="translate(-3.781204102869035, 42.96324661810614)"></path></g></g><g transform="translate(151, 15.951644832574452)"><g fill="#1A1A1A" transform="scale(1)"><path d="M32.00-15.84Q32.00-14.19 31.78-12.88L31.78-12.88L9.59-12.88Q9.86-9.59 11.89-7.73Q13.92-5.86 16.88-5.86L16.88-5.86Q21.15-5.86 22.96-9.54L22.96-9.54L31.24-9.54Q29.92-5.15 26.19-2.33Q22.47 0.49 17.04 0.49L17.04 0.49Q12.66 0.49 9.18-1.45Q5.70-3.40 3.75-6.96Q1.81-10.52 1.81-15.18L1.81-15.18Q1.81-19.89 3.73-23.45Q5.64-27.02 9.10-28.93Q12.55-30.85 17.04-30.85L17.04-30.85Q21.37-30.85 24.80-28.99Q28.22-27.13 30.11-23.70Q32.00-20.28 32.00-15.84L32.00-15.84ZM9.64-18.03L24.06-18.03Q24.00-20.99 21.92-22.77Q19.84-24.55 16.82-24.55L16.82-24.55Q13.97-24.55 12.03-22.82Q10.08-21.10 9.64-18.03L9.64-18.03Z" transform="translate(-1.8084019622417125, 42.96324661810614)"></path></g></g></g> <g fill-rule="" class="tp-slogan" fill="#1A1A1A" transform="translate(78.31350326538086,66.35973358154297)"> <g transform="scale(1, 1)"><g transform="scale(1.9800000000000009)"><path d="M1.10-1.72L0.50-1.02C0.85-0.66 1.26-0.38 1.73-0.17C2.20 0.04 2.71 0.14 3.26 0.14C3.68 0.14 4.05 0.09 4.38-0.03C4.71-0.15 4.99-0.31 5.22-0.51C5.45-0.71 5.63-0.95 5.75-1.22C5.88-1.50 5.94-1.79 5.94-2.10C5.94-2.39 5.90-2.64 5.81-2.86C5.73-3.08 5.62-3.27 5.47-3.44C5.33-3.60 5.16-3.75 4.96-3.87C4.76-3.99 4.54-4.10 4.32-4.20L3.20-4.68C3.04-4.74 2.89-4.81 2.74-4.89C2.58-4.97 2.44-5.05 2.32-5.15C2.19-5.25 2.09-5.37 2.01-5.50C1.93-5.63 1.90-5.80 1.90-5.99C1.90-6.35 2.03-6.63 2.30-6.83C2.57-7.04 2.92-7.14 3.36-7.14C3.73-7.14 4.06-7.07 4.35-6.94C4.64-6.81 4.91-6.63 5.15-6.40L5.69-7.04C5.41-7.33 5.07-7.57 4.67-7.75C4.27-7.93 3.83-8.02 3.36-8.02C3-8.02 2.67-7.96 2.37-7.86C2.07-7.76 1.81-7.61 1.59-7.42C1.37-7.23 1.20-7.01 1.07-6.76C0.95-6.50 0.89-6.22 0.89-5.93C0.89-5.64 0.94-5.39 1.03-5.17C1.13-4.95 1.25-4.76 1.40-4.60C1.56-4.44 1.73-4.30 1.92-4.19C2.11-4.08 2.30-3.98 2.48-3.90L3.61-3.41C3.80-3.32 3.97-3.24 4.13-3.16C4.29-3.08 4.43-2.99 4.54-2.89C4.66-2.79 4.75-2.67 4.82-2.53C4.89-2.39 4.92-2.22 4.92-2.02C4.92-1.63 4.78-1.32 4.49-1.09C4.20-0.85 3.80-0.73 3.28-0.73C2.87-0.73 2.47-0.82 2.09-1.00C1.71-1.18 1.38-1.42 1.10-1.72ZM7.49-7.87L7.49 0L12.14 0L12.14-0.85L8.48-0.85L8.48-3.71L11.47-3.71L11.47-4.56L8.48-4.56L8.48-7.03L12.02-7.03L12.02-7.87ZM13.36-3.94C13.36-3.30 13.44-2.72 13.61-2.21C13.79-1.71 14.03-1.28 14.33-0.93C14.64-0.58 15.01-0.32 15.43-0.13C15.85 0.05 16.30 0.14 16.80 0.14C17.30 0.14 17.75 0.04 18.14-0.16C18.54-0.36 18.89-0.64 19.20-1.00L18.64-1.61C18.38-1.33 18.11-1.11 17.83-0.96C17.54-0.81 17.21-0.73 16.82-0.73C16.45-0.73 16.11-0.81 15.81-0.96C15.51-1.11 15.26-1.33 15.05-1.61C14.84-1.89 14.68-2.23 14.56-2.62C14.45-3.02 14.39-3.46 14.39-3.96C14.39-4.45 14.45-4.89 14.57-5.28C14.69-5.67 14.86-6.01 15.07-6.28C15.29-6.56 15.55-6.77 15.85-6.92C16.16-7.07 16.50-7.14 16.87-7.14C17.21-7.14 17.50-7.07 17.75-6.94C18.01-6.81 18.24-6.63 18.44-6.41L19.01-7.04C18.78-7.30 18.48-7.53 18.12-7.72C17.76-7.92 17.34-8.02 16.86-8.02C16.36-8.02 15.89-7.92 15.46-7.73C15.03-7.55 14.66-7.28 14.35-6.92C14.04-6.57 13.80-6.14 13.62-5.64C13.44-5.14 13.36-4.57 13.36-3.94ZM20.46-7.87L20.46-3.25C20.46-2.62 20.53-2.09 20.68-1.66C20.82-1.22 21.02-0.87 21.27-0.61C21.52-0.34 21.82-0.15 22.17-0.03C22.52 0.09 22.89 0.14 23.29 0.14C23.69 0.14 24.06 0.09 24.41-0.03C24.75-0.15 25.05-0.34 25.30-0.61C25.55-0.87 25.75-1.22 25.90-1.66C26.04-2.09 26.11-2.62 26.11-3.25L26.11-7.87L25.15-7.87L25.15-3.23C25.15-2.76 25.10-2.36 25.01-2.04C24.91-1.72 24.78-1.46 24.61-1.27C24.44-1.08 24.25-0.94 24.02-0.86C23.80-0.77 23.56-0.73 23.29-0.73C23.04-0.73 22.80-0.77 22.57-0.86C22.35-0.94 22.15-1.08 21.99-1.27C21.83-1.46 21.70-1.72 21.60-2.04C21.50-2.36 21.46-2.76 21.46-3.23L21.46-7.87ZM29.23-4.14L29.23-7.07L30.55-7.07C31.17-7.07 31.64-6.96 31.97-6.76C32.30-6.55 32.46-6.18 32.46-5.66C32.46-5.15 32.30-4.77 31.97-4.52C31.64-4.27 31.17-4.14 30.55-4.14ZM32.56 0L33.68 0L31.69-3.43C32.23-3.57 32.66-3.82 32.98-4.19C33.30-4.56 33.46-5.05 33.46-5.66C33.46-6.07 33.39-6.42 33.25-6.70C33.12-6.98 32.93-7.20 32.68-7.38C32.44-7.56 32.15-7.68 31.81-7.76C31.47-7.83 31.10-7.87 30.70-7.87L28.24-7.87L28.24 0L29.23 0L29.23-3.32L30.66-3.32ZM35.21-7.87L35.21 0L36.20 0L36.20-7.87ZM40.00-7.03L40.00 0L41.00 0L41.00-7.03L43.38-7.03L43.38-7.87L37.62-7.87L37.62-7.03ZM45.90-3.05L45.90 0L46.91 0L46.91-3.05L49.27-7.87L48.23-7.87L47.22-5.65C47.10-5.36 46.97-5.08 46.84-4.80C46.70-4.52 46.56-4.23 46.43-3.94L46.38-3.94C46.24-4.23 46.12-4.52 46.00-4.80C45.88-5.08 45.75-5.36 45.62-5.65L44.60-7.87L43.54-7.87Z" transform="translate(-0.504, 8.016)"></path></g></g></g></g><defs v-gra="od"></defs></g></svg>