<svg xmlns="http://www.w3.org/2000/svg" xmlns:xlink="http://www.w3.org/1999/xlink" version="1.0" x="0" y="0" width="2400" height="3334.023851986907" viewBox="142.487781791687 86.78068187713623 55.02442497253418 76.43864387512207" preserveAspectRatio="xMidYMid meet" color-interpolation-filters="sRGB"><g><defs><linearGradient id="92" x1="0%" y1="0%" x2="100%" y2="0%"><stop offset="0%" stop-color="#fa71cd"></stop> <stop offset="100%" stop-color="#9b59b6"></stop></linearGradient><linearGradient id="93" x1="0%" y1="0%" x2="100%" y2="0%"><stop offset="0%" stop-color="#f9d423"></stop> <stop offset="100%" stop-color="#f83600"></stop></linearGradient><linearGradient id="94" x1="0%" y1="0%" x2="100%" y2="0%"><stop offset="0%" stop-color="#0064d2"></stop> <stop offset="100%" stop-color="#1cb0f6"></stop></linearGradient><linearGradient id="95" x1="0%" y1="0%" x2="100%" y2="0%"><stop offset="0%" stop-color="#f00978"></stop> <stop offset="100%" stop-color="#3f51b1"></stop></linearGradient><linearGradient id="96" x1="0%" y1="0%" x2="100%" y2="0%"><stop offset="0%" stop-color="#7873f5"></stop> <stop offset="100%" stop-color="#ec77ab"></stop></linearGradient><linearGradient id="97" x1="0%" y1="0%" x2="100%" y2="0%"><stop offset="0%" stop-color="#f9d423"></stop> <stop offset="100%" stop-color="#e14fad"></stop></linearGradient><linearGradient id="98" x1="0%" y1="0%" x2="100%" y2="0%"><stop offset="0%" stop-color="#009efd"></stop> <stop offset="100%" stop-color="#2af598"></stop></linearGradient><linearGradient id="99" x1="0%" y1="0%" x2="100%" y2="0%"><stop offset="0%" stop-color="#ffcc00"></stop> <stop offset="100%" stop-color="#00b140"></stop></linearGradient><linearGradient id="100" x1="0%" y1="0%" x2="100%" y2="0%"><stop offset="0%" stop-color="#d51007"></stop> <stop offset="100%" stop-color="#ff8177"></stop></linearGradient><linearGradient id="102" x1="0%" y1="0%" x2="100%" y2="0%"><stop offset="0%" stop-color="#a2b6df"></stop> <stop offset="100%" stop-color="#0c3483"></stop></linearGradient><linearGradient id="103" x1="0%" y1="0%" x2="100%" y2="0%"><stop offset="0%" stop-color="#7ac5d8"></stop> <stop offset="100%" stop-color="#eea2a2"></stop></linearGradient><linearGradient id="104" x1="0%" y1="0%" x2="100%" y2="0%"><stop offset="0%" stop-color="#00ecbc"></stop> <stop offset="100%" stop-color="#007adf"></stop></linearGradient><linearGradient id="105" x1="0%" y1="0%" x2="100%" y2="0%"><stop offset="0%" stop-color="#b88746"></stop> <stop offset="100%" stop-color="#fdf5a6"></stop></linearGradient></defs><g class="imagesvg isNoFont" transform="translate(143.02724266052246,87.32013320922852)"><g><rect fill="#1A1A1A" fill-opacity="0" stroke-width="2" x="0" y="0" width="53.945514004091955" height="75.35973681841187" class="image-rect"></rect> <svg x="0" y="0" width="53.945514004091955" height="75.35973681841187" filtersec="colorsb8622504198" class="image-svg-svg primary" style="overflow: visible;"><svg xmlns="http://www.w3.org/2000/svg" viewBox="-0.038247983902692795 0 53.88772964477539 75.27935028076172"><g><g><path d="M0 61.7a13.26 13.26 0 0 0 1 6.15 9.16 9.16 0 0 0 .66 1.25 245.38 245.38 0 0 0 21.72-24L25.3 39h.09l.24-.74C16.76 46 8.64 54.21 0 61.7z" fill="#f15a24"></path><path d="M23.42 45.13a245.38 245.38 0 0 1-21.72 24 11.31 11.31 0 0 0 3.78 3.63 10.24 10.24 0 0 0 1.5.75c4.59-6 8.63-12.7 13.25-18z" fill="#ed1c24"></path><path d="M52.86 30a14.28 14.28 0 0 0-3.69-6.42A9.78 9.78 0 0 0 42 21a14.57 14.57 0 0 0-7.87 2.11 19.41 19.41 0 0 0-5.67 5.36l3-9.58a26.88 26.88 0 0 0 1-5.89 13.26 13.26 0 0 0-1-6.15A10.69 10.69 0 0 0 27 2q-3.21-2-9.27-2h-4.38a3.74 3.74 0 0 1 1.93 2.46A11.58 11.58 0 0 1 15.64 6a17.67 17.67 0 0 1-.48 3.43q-.4 1.58-.57 2.11l-12.82 42a180.42 180.42 0 0 0 26.57-22.23 8.12 8.12 0 0 1 2.41-2.74 2.51 2.51 0 0 1 2.37-.44 2.72 2.72 0 0 1 1.27 2.2 10.54 10.54 0 0 1-.56 4.67l-8.44 26.44a10.07 10.07 0 0 1-2.33 4.26 3.32 3.32 0 0 1-2.55 1.14 2.36 2.36 0 0 1-1.85-1.63 6.76 6.76 0 0 1-.13-4l.88-3.08.26-.53h-.09l.65-2.11c-4.63 5.32-8.67 12-13.25 18a20.78 20.78 0 0 0 7.77 1.23h4.39a3.56 3.56 0 0 1-1.58-1.49 6.42 6.42 0 0 1-.7-2.15 9.78 9.78 0 0 1 0-2.46q.13-1.27.31-2.42a13.53 13.53 0 0 0 1 3.38A9.49 9.49 0 0 0 20 72.43a8.71 8.71 0 0 0 3 2 12 12 0 0 0 4.18.83 17.19 17.19 0 0 0 10-2.64 28.54 28.54 0 0 0 7.65-7.12A42.56 42.56 0 0 0 50 56.12a53.14 53.14 0 0 0 3-9.36 56.35 56.35 0 0 0 .83-8.39 27.66 27.66 0 0 0-.97-8.37z" fill="#1a1a1a"></path><path d="M1.76 53.48L1 55.81a26.92 26.92 0 0 0-1 5.89C8.64 54.21 16.76 46 25.63 38.29l.11-.36.62-1.93q.35-1.1.79-2.24a15.15 15.15 0 0 1 .85-1.94c.1-.19.21-.34.31-.51A180.42 180.42 0 0 1 1.76 53.48z" fill="#f7931e"></path></g></g></svg></svg> </g></g><defs v-gra="od"></defs></g></svg>