<?xml version="1.0" encoding="UTF-8"?>
<svg xmlns="http://www.w3.org/2000/svg" xmlns:xlink="http://www.w3.org/1999/xlink" width="50px" height="70px" viewBox="0 0 50 69" version="1.1">
<defs>
<clipPath id="clip1">
  <path d="M 0.488281 35 L 24 35 L 24 63 L 0.488281 63 Z M 0.488281 35 "/>
</clipPath>
<clipPath id="clip2">
  <path d="M 2 0.488281 L 49.507812 0.488281 L 49.507812 68.515625 L 2 68.515625 Z M 2 0.488281 "/>
</clipPath>
<clipPath id="clip3">
  <path d="M 0.488281 28 L 27 28 L 27 57 L 0.488281 57 Z M 0.488281 28 "/>
</clipPath>
</defs>
<g id="surface1">
<g clip-path="url(#clip1)" clip-rule="nonzero">
<path style=" stroke:none;fill-rule:nonzero;fill:rgb(94.509804%,35.294118%,14.117647%);fill-opacity:1;" d="M 0.523438 56.242188 C 0.378906 58.140625 0.691406 60.046875 1.433594 61.800781 C 1.605469 62.191406 1.804688 62.570312 2.035156 62.929688 C 9.09375 56.140625 15.695312 48.894531 21.792969 41.242188 L 23.539062 35.730469 L 23.621094 35.730469 L 23.839844 35.0625 C 15.769531 42.054688 8.382812 49.472656 0.523438 56.242188 Z M 0.523438 56.242188 "/>
</g>
<path style=" stroke:none;fill-rule:nonzero;fill:rgb(92.941176%,10.980392%,14.117647%);fill-opacity:1;" d="M 21.828125 41.269531 C 15.730469 48.921875 9.128906 56.167969 2.070312 62.957031 C 2.941406 64.300781 4.121094 65.425781 5.511719 66.238281 C 5.945312 66.5 6.402344 66.726562 6.875 66.914062 C 11.050781 61.492188 14.726562 55.4375 18.925781 50.648438 Z M 21.828125 41.269531 "/>
<g clip-path="url(#clip2)" clip-rule="nonzero">
<path style=" stroke:none;fill-rule:nonzero;fill:rgb(10.196078%,10.196078%,10.196078%);fill-opacity:1;" d="M 48.609375 27.597656 C 48.023438 25.402344 46.867188 23.402344 45.253906 21.796875 C 43.484375 20.175781 41.132812 19.332031 38.730469 19.464844 C 36.210938 19.410156 33.726562 20.070312 31.570312 21.371094 C 29.539062 22.621094 27.785156 24.269531 26.414062 26.214844 L 29.144531 17.558594 C 29.644531 15.820312 29.949219 14.035156 30.050781 12.234375 C 30.199219 10.335938 29.886719 8.429688 29.144531 6.675781 C 28.289062 4.828125 26.867188 3.292969 25.085938 2.292969 C 23.140625 1.089844 20.328125 0.488281 16.652344 0.488281 L 12.667969 0.488281 C 13.554688 0.9375 14.195312 1.75 14.425781 2.710938 C 14.699219 3.753906 14.808594 4.832031 14.753906 5.910156 C 14.710938 6.953125 14.5625 7.992188 14.316406 9.007812 C 14.074219 9.960938 13.898438 10.597656 13.796875 10.914062 L 2.136719 48.867188 C 10.820312 42.957031 18.914062 36.230469 26.304688 28.78125 C 26.835938 27.800781 27.585938 26.953125 28.496094 26.304688 C 29.101562 25.816406 29.914062 25.664062 30.652344 25.90625 C 31.34375 26.339844 31.777344 27.082031 31.808594 27.894531 C 31.960938 29.320312 31.785156 30.765625 31.296875 32.113281 L 23.621094 56.007812 C 23.242188 57.441406 22.515625 58.765625 21.5 59.855469 C 20.917969 60.523438 20.070312 60.898438 19.183594 60.886719 C 18.386719 60.75 17.738281 60.179688 17.5 59.414062 C 17.09375 58.25 17.050781 56.988281 17.382812 55.800781 L 18.179688 53.015625 L 18.417969 52.539062 L 18.335938 52.539062 L 18.925781 50.628906 C 14.714844 55.4375 11.039062 61.476562 6.875 66.898438 C 9.136719 67.710938 11.535156 68.089844 13.941406 68.007812 L 17.9375 68.007812 C 17.328125 67.71875 16.824219 67.25 16.5 66.660156 C 16.171875 66.054688 15.957031 65.398438 15.863281 64.71875 C 15.769531 63.980469 15.769531 63.234375 15.863281 62.496094 C 15.941406 61.730469 16.035156 61 16.144531 60.308594 C 16.3125 61.363281 16.617188 62.390625 17.054688 63.363281 C 17.449219 64.3125 18.011719 65.1875 18.71875 65.9375 C 19.492188 66.722656 20.421875 67.339844 21.445312 67.746094 C 22.660156 68.21875 23.945312 68.472656 25.25 68.496094 C 28.457031 68.648438 31.632812 67.8125 34.347656 66.109375 C 37.042969 64.410156 39.402344 62.226562 41.304688 59.675781 C 43.226562 57.058594 44.804688 54.210938 46.007812 51.199219 C 47.179688 48.46875 48.09375 45.640625 48.738281 42.742188 C 49.179688 40.238281 49.429688 37.703125 49.492188 35.160156 C 49.589844 32.609375 49.289062 30.058594 48.609375 27.597656 Z M 48.609375 27.597656 "/>
</g>
<g clip-path="url(#clip3)" clip-rule="nonzero">
<path style=" stroke:none;fill-rule:nonzero;fill:rgb(96.862745%,57.647059%,11.764706%);fill-opacity:1;" d="M 2.125 48.8125 L 1.433594 50.921875 C 0.933594 52.65625 0.628906 54.441406 0.523438 56.242188 C 8.382812 49.472656 15.769531 42.054688 23.839844 35.089844 L 23.941406 34.761719 L 24.503906 33.019531 C 24.714844 32.355469 24.957031 31.679688 25.222656 30.996094 C 25.4375 30.394531 25.695312 29.808594 25.996094 29.242188 C 26.085938 29.070312 26.1875 28.933594 26.277344 28.78125 C 18.890625 36.210938 10.804688 42.921875 2.125 48.8125 Z M 2.125 48.8125 "/>
</g>
</g>
</svg>
