<?xml version="1.0" encoding="UTF-8"?>
<svg xmlns="http://www.w3.org/2000/svg" xmlns:xlink="http://www.w3.org/1999/xlink" width="70px" height="70px" viewBox="0 0 70 70" version="1.1">
<defs>
<clipPath id="clip1">
  <path d="M 0.6875 35 L 34 35 L 34 64 L 0.6875 64 Z M 0.6875 35 "/>
</clipPath>
<clipPath id="clip2">
  <path d="M 2 0.492188 L 69.316406 0.492188 L 69.316406 69.503906 L 2 69.503906 Z M 2 0.492188 "/>
</clipPath>
<clipPath id="clip3">
  <path d="M 0.6875 29 L 37 29 L 37 58 L 0.6875 58 Z M 0.6875 29 "/>
</clipPath>
</defs>
<g id="surface1">
<g clip-path="url(#clip1)" clip-rule="nonzero">
<path style=" stroke:none;fill-rule:nonzero;fill:rgb(94.509804%,35.294118%,14.117647%);fill-opacity:1;" d="M 0.734375 57.058594 C 0.53125 58.984375 0.96875 60.914062 2.007812 62.695312 C 2.246094 63.09375 2.527344 63.476562 2.847656 63.839844 C 12.730469 56.953125 21.972656 49.605469 30.511719 41.839844 L 32.957031 36.246094 L 33.070312 36.246094 L 33.375 35.570312 C 22.078125 42.664062 11.738281 50.191406 0.734375 57.058594 Z M 0.734375 57.058594 "/>
</g>
<path style=" stroke:none;fill-rule:nonzero;fill:rgb(92.941176%,10.980392%,14.117647%);fill-opacity:1;" d="M 30.5625 41.867188 C 22.023438 49.632812 12.78125 56.980469 2.898438 63.867188 C 4.121094 65.234375 5.769531 66.375 7.714844 67.195312 C 8.324219 67.464844 8.960938 67.691406 9.625 67.882812 C 15.46875 62.382812 20.613281 56.242188 26.5 51.382812 Z M 30.5625 41.867188 "/>
<g clip-path="url(#clip2)" clip-rule="nonzero">
<path style=" stroke:none;fill-rule:nonzero;fill:rgb(10.196078%,10.196078%,10.196078%);fill-opacity:1;" d="M 68.054688 27.996094 C 67.234375 25.769531 65.613281 23.742188 63.355469 22.109375 C 60.878906 20.464844 57.585938 19.613281 54.222656 19.746094 C 50.695312 19.691406 47.21875 20.363281 44.199219 21.679688 C 41.355469 22.949219 38.898438 24.621094 36.980469 26.59375 L 40.800781 17.8125 C 41.503906 16.050781 41.929688 14.238281 42.074219 12.410156 C 42.277344 10.484375 41.839844 8.554688 40.800781 6.773438 C 39.605469 4.898438 37.617188 3.34375 35.121094 2.328125 C 32.394531 1.105469 28.460938 0.492188 23.316406 0.492188 L 17.738281 0.492188 C 18.972656 0.953125 19.871094 1.773438 20.195312 2.75 C 20.578125 3.808594 20.734375 4.902344 20.652344 5.996094 C 20.59375 7.054688 20.386719 8.109375 20.042969 9.140625 C 19.703125 10.105469 19.460938 10.75 19.316406 11.074219 L 2.988281 49.578125 C 15.152344 43.582031 26.480469 36.757812 36.828125 29.199219 C 37.570312 28.203125 38.621094 27.34375 39.894531 26.6875 C 40.742188 26.1875 41.878906 26.039062 42.914062 26.28125 C 43.882812 26.722656 44.488281 27.476562 44.53125 28.300781 C 44.746094 29.746094 44.5 31.210938 43.816406 32.582031 L 33.070312 56.820312 C 32.539062 58.277344 31.519531 59.617188 30.101562 60.722656 C 29.285156 61.398438 28.097656 61.78125 26.855469 61.769531 C 25.742188 61.628906 24.832031 61.050781 24.5 60.273438 C 23.929688 59.09375 23.875 57.816406 24.332031 56.609375 L 25.453125 53.785156 L 25.785156 53.300781 L 25.671875 53.300781 L 26.5 51.363281 C 20.601562 56.242188 15.457031 62.367188 9.625 67.867188 C 12.792969 68.691406 16.152344 69.074219 19.519531 68.992188 L 25.109375 68.992188 C 24.257812 68.699219 23.554688 68.222656 23.097656 67.628906 C 22.640625 67.015625 22.339844 66.347656 22.207031 65.65625 C 22.074219 64.90625 22.074219 64.148438 22.207031 63.402344 C 22.316406 62.625 22.449219 61.886719 22.601562 61.183594 C 22.835938 62.25 23.265625 63.292969 23.875 64.28125 C 24.429688 65.246094 25.21875 66.132812 26.207031 66.894531 C 27.289062 67.691406 28.589844 68.316406 30.027344 68.726562 C 31.722656 69.207031 33.527344 69.464844 35.347656 69.488281 C 39.839844 69.640625 44.285156 68.796875 48.085938 67.070312 C 51.863281 65.34375 55.164062 63.128906 57.828125 60.542969 C 60.515625 57.886719 62.726562 54.996094 64.410156 51.941406 C 66.050781 49.171875 67.328125 46.300781 68.230469 43.359375 C 68.851562 40.820312 69.203125 38.25 69.289062 35.667969 C 69.421875 33.082031 69.007812 30.492188 68.054688 27.996094 Z M 68.054688 27.996094 "/>
</g>
<g clip-path="url(#clip3)" clip-rule="nonzero">
<path style=" stroke:none;fill-rule:nonzero;fill:rgb(96.862745%,57.647059%,11.764706%);fill-opacity:1;" d="M 2.976562 49.523438 L 2.007812 51.65625 C 1.308594 53.417969 0.878906 55.230469 0.734375 57.058594 C 11.738281 50.191406 22.078125 42.664062 33.375 35.597656 L 33.515625 35.265625 L 34.304688 33.496094 C 34.601562 32.824219 34.9375 32.140625 35.3125 31.445312 C 35.613281 30.832031 35.976562 30.238281 36.394531 29.664062 C 36.519531 29.492188 36.660156 29.351562 36.789062 29.199219 C 26.449219 36.734375 15.125 43.542969 2.976562 49.523438 Z M 2.976562 49.523438 "/>
</g>
</g>
</svg>
